<svg xmlns="http://www.w3.org/2000/svg" xmlns:xlink="http://www.w3.org/1999/xlink" version="1.1" id="Layer_1" x="0px" y="0px" width="32px" height="32px" viewBox="0 0 32 32" enable-background="new 0 0 32 32" xml:space="preserve">
<g id="Layer_2" display="none">
	<rect x="-404.6" y="-474" display="inline" fill="#231F20" width="578" height="1198"/>
</g>
<g id="Layer_1_1_">
	<g>
		<path d="M14.219 29.157c-2.553 0-4.629-2.076-4.629-4.628V7.472c0-2.552 2.076-4.629 4.629-4.629c2.552 0 4.6 2.1 4.6 4.6 v17.057C18.848 27.1 16.8 29.2 14.2 29.157z M14.219 3.843c-2.001 0-3.629 1.628-3.629 3.629v17.057 c0 2 1.6 3.6 3.6 3.628c2.001 0 3.628-1.627 3.628-3.628V7.472C17.848 5.5 16.2 3.8 14.2 3.843z"/>
		<g>
			<rect x="12.2" y="19" width="4.1" height="1"/>
			<rect x="13.7" y="17.4" width="1" height="4.1"/>
		</g>
		<g>
			<path d="M28.3 20.977l-1.393-0.388c-0.216-0.06-5.302-1.501-9.036-5.072l0.691-0.723c2.361 2.3 5.4 3.6 7.1 4.3 L18.075 8.75l0.545-0.948L28.3 20.977z"/>
		</g>
		<path d="M9.685 22.779L3.81 15.404c-0.155-0.194-0.144-0.472 0.025-0.653l1.517-1.625c0.097-0.103 0.24-0.152 0.373-0.159 C5.866 13 6 13 6.1 13.138l4.483 5.125l-0.752 0.657l-4.119-4.708L4.86 15.118l5.605 7.038L9.685 22.779z"/>
	</g>
</g>
<g id="Layer_7" display="none">
	<g display="inline">
		<polygon points="10.2,8.2 9.5,7.5 1,16 9.5,24.5 10.2,23.8 2.4,16"/>
		<path d="M22.104 16l-5.396-5.396l2.439-2.44l-0.707-0.707L16 9.897l-2.44-2.44l-0.707 0.707l2.44 2.44L9.897 16l5.396 5.4 l-2.44 2.439l0.707 0.707L16 22.104l2.439 2.439l0.707-0.707l-2.439-2.439L22.104 16z M11.312 16L16 11.311L20.688 16L16 20.7 L11.312 16z"/>
		<polygon points="22.5,7.5 21.8,8.2 29.6,16 21.8,23.8 22.5,24.5 31,16"/>
	</g>
</g>
<g id="Layer_6" display="none">
	<g display="inline">
		<path d="M12.359 4.562h-0.92l0.92-0.014h-0.062l0.062-0.001h-1v0.015c-0.01 4.241-4.368 11.833-8.64 11.833v1 c4.37 0 8.6 7.3 8.6 11.488h1c0-4.219 4.27-11.488 8.64-11.488v-1C16.729 16.4 12.4 8.8 12.4 4.562z M11.859 25.9 c-1.083-3.595-3.802-7.604-6.932-8.978c3.126-1.417 5.848-5.545 6.932-9.24c1.084 3.7 3.8 7.8 6.9 9.2 C15.661 18.3 12.9 22.3 11.9 25.864z"/>
		<polygon points="29.3,7 25.4,7 25.4,3.1 24.4,3.1 24.4,7 20.4,7 20.4,8 24.4,8 24.4,12 25.4,12 25.4,8 29.3,8"/>
	</g>
</g>
<g id="Layer_5" display="none">
	<g display="inline">
		<polygon points="26.7,21.8 26.4,20.8 16,24.5 5.6,20.8 5.3,21.8 14.5,25.1 5.3,28.4 5.6,29.3 16,25.6 26.4,29.3 26.7,28.4 17.5,25.1"/>
		<path d="M13.67 19.855l0.119 0.012c0.297 0 0.683-0.001 0.975-1.857c1.034 1.9 1.4 1.9 1.6 1.895l0.089-0.008 c2.029-0.312 4.458-1.418 5.19-3.582c0.476-1.407 0.026-2.934-0.368-4.281c-0.062-0.216-0.126-0.429-0.184-0.635 c-0.28-1.024-0.588-2.032-0.913-2.996l-0.399-1.188l-1.853 3.993L13.11 2.709v1.889c0 3.528-0.549 5.629-2.259 8.6 c-0.813 1.437-0.946 2.995-0.365 4.274C11.03 18.7 12.2 19.5 13.7 19.855z M11.722 13.7 c1.499-2.646 2.154-4.624 2.334-7.346l3.982 6.997l1.604-3.459c0.176 0.6 0.3 1.1 0.5 1.7 c0.06 0.2 0.1 0.4 0.2 0.652c0.354 1.2 0.8 2.6 0.4 3.679c-0.569 1.682-2.591 2.594-4.223 2.9 c-0.319-0.358-1.046-1.667-1.59-2.792l-0.796-1.646l-0.152 1.822c-0.079 0.944-0.239 2.063-0.384 2.5 c-1.049-0.281-1.798-0.865-2.176-1.697C10.949 16.1 11.1 14.9 11.7 13.739z"/>
	</g>
</g>
<g id="Layer_4" display="none">
	<g display="inline">
		<path d="M16 3.248C8.969 3.2 3.2 9 3.2 16S8.969 28.8 16 28.752c7.031 0 12.752-5.721 12.752-12.752 S23.031 3.2 16 3.248z M16 27.752C9.52 27.8 4.2 22.5 4.2 16C4.248 9.5 9.5 4.2 16 4.2 c6.48 0 11.8 5.3 11.8 11.752C27.752 22.5 22.5 27.8 16 27.752z"/>
		<path d="M13.388 14.524l0.031 0.189l-0.17 0.089l-1.184 8.032l0.852 0.423l5.694-5.784l-0.03-0.188l0.17-0.089l1.183-8.031 l-0.852-0.423L13.388 14.524z M14.139 15.63l3.277 1.634l-4.138 4.201L14.139 15.63z M17.861 16.368l-3.277-1.633l4.137-4.202 L17.861 16.368z"/>
	</g>
</g>
<g id="Layer_3" display="none">
	<polygon display="inline" points="27.4,5.3 26.7,4.6 16,15.3 5.3,4.6 4.6,5.3 15.3,16 4.6,26.7 5.3,27.4 16,16.7 26.7,27.4 27.4,26.7 16.7,16"/>
</g>
</svg>
